# Created by DisUnity v0.3.1
v -2.1707087 -3.5101948 1.5393412
v 2.932781 3.4247246 1.5553136
v -2.9330416 3.4247246 1.5553136
v 2.1704445 -3.5101948 1.5393412
v -3.5373664 3.6766548 1.3020463
v -3.2451522 3.997818 1.3020463
v -2.669883 -3.7728748 1.3020468
v -2.326256 -4.093704 1.3020468
v 3.2448914 3.9978142 1.3020463
v 3.5371056 3.6766548 1.3020463
v 2.6696186 -3.7728748 1.3020468
v 2.3259916 -4.093706 1.3020468
v -3.0430062 -3.7038574 0.6027577
v -3.835669 3.608387 1.3020463
v -3.8620875 3.6896286 0.6027577
v -2.9808605 -3.783638 1.3020468
v -2.4528973 -4.3057613 0.6027577
v -2.373732 -4.3305225 1.3020468
v 2.4505289 -4.3057613 0.6027577
v 2.372972 -4.3305244 1.3020468
v -3.3024209 4.2984276 0.6027577
v -3.2628736 4.217304 1.3020463
v 3.2621171 4.2173004 1.3020463
v 3.215574 4.298424 0.6027577
v 3.8597236 3.6896248 0.6027577
v 3.834912 3.6083832 1.3020463
v 3.0406387 -3.7038574 0.6027577
v 2.9801 -3.78364 1.3020468
v -3.5373664 3.6766548 1.3020463
v -2.669883 -3.7728748 1.3020468
v -2.326256 -4.093704 1.3020468
v 2.3259916 -4.093706 1.3020468
v 2.6696186 -3.7728748 1.3020468
v 3.834912 3.6083832 1.3020463
v 3.5371056 3.6766548 1.3020463
v 3.2448914 3.9978142 1.3020463
v -3.2451522 3.997818 1.3020463
vn -0.16546443 -0.16798261 0.9718042
vn 0.16952534 0.14937742 0.97413933
vn -0.16952538 0.14937724 0.97413933
vn 0.16546454 -0.16798252 0.9718042
vn -0.3437574 0.115881115 0.93188107
vn -0.15144409 0.3293888 0.9319698
vn -0.34419256 -0.17545795 0.92235893
vn -0.1281628 -0.3440956 0.9301465
vn 0.15144417 0.32938963 0.93196946
vn 0.34375712 0.115881965 0.9318812
vn 0.34419286 -0.17545763 0.92235893
vn 0.12816274 -0.34409514 0.9301466
vn -0.9087996 -0.4156278 0.036562666
vn -0.72214735 0.21671468 0.6569155
vn -0.93757707 0.33551463 0.091537446
vn -0.6731794 -0.35885227 0.64657146
vn -0.39885092 -0.91697615 -0.008522826
vn -0.26931775 -0.72789353 0.6305863
vn 0.39839336 -0.91716564 -0.009474045
vn 0.26976448 -0.72797453 0.6303017
vn -0.39754868 0.9091299 0.12424887
vn -0.29406422 0.67760813 0.67407227
vn 0.3041287 0.68291986 0.6641733
vn 0.35760772 0.92826724 0.102160364
vn 0.9328275 0.35414156 0.06645815
vn 0.7244066 0.23120002 0.6494472
vn 0.90878147 -0.41584656 0.03446553
vn 0.67382073 -0.35900384 0.6458187
vn 0.0 0.0 1.0
vn 0.0 0.0 1.0
vn 0.0 0.0 1.0
vn 0.0 0.0 1.0
vn 0.0 0.0 1.0
vn 0.7244066 0.23120002 0.6494472
vn 0.0 0.0 1.0
vn 0.0 0.0 1.0
vn 0.0 0.0 1.0
vt 0.2256428 0.8276416
vt 0.5759669 0.35094813
vt 0.17504871 0.35093588
vt 0.5253831 0.8276273
vt 0.13173258 0.33242768
vt 0.15181279 0.30893964
vt 0.18780887 0.84710217
vt 0.2140851 0.87027276
vt 0.5992027 0.3089478
vt 0.6192804 0.3324517
vt 0.56317997 0.847208
vt 0.5367938 0.87027526
vt 0.09047809 0.91517955
vt 0.071177214 0.29856032
vt 0.024006665 0.27948785
vt 0.13896093 0.8974135
vt 0.16058317 0.97916573
vt 0.1837168 0.9332272
vt 0.58846164 0.97797644
vt 0.56482685 0.932873
vt 0.08583146 0.20666769
vt 0.10735667 0.25173694
vt 0.63545614 0.2519737
vt 0.65091956 0.20376585
vt 0.7209112 0.27593815
vt 0.67557186 0.29573482
vt 0.65707165 0.9121058
vt 0.60794747 0.89494705
vt 0.09206453 0.29065654
vt 0.16223317 0.89707494
vt 0.18615854 0.91657627
vt 0.56204337 0.9165169
vt 0.58457136 0.89515764
vt 0.67557186 0.29573482
vt 0.6548939 0.288756
vt 0.63527775 0.26705295
vt 0.10807657 0.2664348

o zhishideng
s 1
usemtl zhishideng
f 1/1/1 2/2/2 3/3/3
f 1/1/1 4/4/4 2/2/2
f 5/5/5 1/1/1 3/3/3
f 6/6/6 5/5/5 3/3/3
f 5/5/5 7/7/7 1/1/1
f 7/7/7 8/8/8 1/1/1
f 8/8/8 4/4/4 1/1/1
f 9/9/9 3/3/3 2/2/2
f 9/9/9 6/6/6 3/3/3
f 10/10/10 9/9/9 2/2/2
f 11/11/11 2/2/2 4/4/4
f 11/11/11 10/10/10 2/2/2
f 12/12/12 11/11/11 4/4/4
f 8/8/8 12/12/12 4/4/4
f 13/13/13 14/14/14 15/15/15
f 13/13/13 16/16/16 14/14/14
f 17/17/17 16/16/16 13/13/13
f 17/17/17 18/18/18 16/16/16
f 19/19/19 18/18/18 17/17/17
f 19/19/19 20/20/20 18/18/18
f 14/14/14 21/21/21 15/15/15
f 14/14/14 22/22/22 21/21/21
f 21/21/21 22/22/22 23/23/23
f 21/21/21 23/23/23 24/24/24
f 23/23/23 25/25/25 24/24/24
f 23/23/23 26/26/26 25/25/25
f 26/26/26 27/27/27 25/25/25
f 26/26/26 28/28/28 27/27/27
f 28/28/28 19/19/19 27/27/27
f 28/28/28 20/20/20 19/19/19
f 29/29/29 14/14/14 16/16/16
f 29/29/29 16/16/16 30/30/30
f 30/30/30 16/16/16 18/18/18
f 30/30/30 18/18/18 31/31/31
f 31/31/31 18/18/18 20/20/20
f 31/31/31 20/20/20 32/32/32
f 32/32/32 20/20/20 28/28/28
f 32/32/32 28/28/28 33/33/33
f 33/33/33 28/28/28 34/34/34
f 33/33/33 34/34/34 35/35/35
f 35/35/35 34/34/34 23/23/23
f 35/35/35 23/23/23 36/36/36
f 36/36/36 23/23/23 22/22/22
f 36/36/36 22/22/22 37/37/37
f 37/37/37 14/14/14 29/29/29
f 37/37/37 22/22/22 14/14/14

